<svg width="40" height="40" viewBox="0 0 40 40" fill="none" xmlns="http://www.w3.org/2000/svg">
<g clip-path="url(#clip0_1_3769)">
<g clip-path="url(#clip1_1_3769)">
<path d="M20 40C31.0457 40 40 31.0457 40 20C40 8.9543 31.0457 0 20 0C8.9543 0 0 8.9543 0 20C0 31.0457 8.9543 40 20 40Z" fill="#FF6600"/>
<path d="M11.7888 17.0367C11.0814 17.4196 9.2267 18.2015 10.3563 19.1799C10.9082 19.6578 11.5228 19.9996 12.2954 19.9996H16.7046C17.4773 19.9996 18.0918 19.6578 18.6437 19.1799C19.7733 18.2015 17.9186 17.4196 17.2112 17.0367C15.5524 16.1388 13.4476 16.1388 11.7888 17.0367Z" stroke="white" stroke-width="1.5"/>
<path d="M16.75 12.2727C16.75 13.5279 15.7426 14.5455 14.5 14.5455C13.2574 14.5455 12.25 13.5279 12.25 12.2727C12.25 11.0175 13.2574 10 14.5 10C15.7426 10 16.75 11.0175 16.75 12.2727Z" stroke="white" stroke-width="1.5"/>
<path d="M12 23C12 26.3171 14.6829 29 18 29L17.1429 27.2857" stroke="white" stroke-width="1.5" stroke-linecap="round" stroke-linejoin="round"/>
<path d="M28 17C28 13.6829 25.3171 11 22 11L22.8571 12.7143" stroke="white" stroke-width="1.5" stroke-linecap="round" stroke-linejoin="round"/>
<path d="M22.7888 27.0367C22.0814 27.4196 20.2267 28.2015 21.3563 29.1799C21.9082 29.6578 22.5227 29.9996 23.2954 29.9996H27.7046C28.4773 29.9996 29.0918 29.6578 29.6437 29.1799C30.7733 28.2015 28.9186 27.4196 28.2112 27.0367C26.5524 26.1388 24.4476 26.1388 22.7888 27.0367Z" stroke="white" stroke-width="1.5"/>
<path d="M27.75 22.2727C27.75 23.5279 26.7426 24.5455 25.5 24.5455C24.2574 24.5455 23.25 23.5279 23.25 22.2727C23.25 21.0175 24.2574 20 25.5 20C26.7426 20 27.75 21.0175 27.75 22.2727Z" stroke="white" stroke-width="1.5"/>
</g>
</g>
<defs>
<clipPath id="clip0_1_3769">
<rect width="40" height="40" fill="white"/>
</clipPath>
<clipPath id="clip1_1_3769">
<rect width="40" height="40" fill="white"/>
</clipPath>
</defs>
</svg>
