<svg width="40" height="40" viewBox="0 0 40 40" fill="none" xmlns="http://www.w3.org/2000/svg">
<g clip-path="url(#clip0_1_3786)">
<g clip-path="url(#clip1_1_3786)">
<path d="M20 40C31.0457 40 40 31.0457 40 20C40 8.9543 31.0457 0 20 0C8.9543 0 0 8.9543 0 20C0 31.0457 8.9543 40 20 40Z" fill="#FF6600"/>
<path d="M29 29H18C14.7002 29 13.0502 29 12.0251 27.9749C11 26.9497 11 25.2998 11 22V11" stroke="white" stroke-width="1.5" stroke-linecap="round"/>
<path d="M15.9961 25C19.5276 25 26.9112 23.5358 26.6969 14.4337M24.4876 16.044L26.3711 14.1471C26.5646 13.9522 26.8788 13.9508 27.0741 14.1438L28.9961 16.044" stroke="white" stroke-width="1.5" stroke-linecap="round" stroke-linejoin="round"/>
</g>
</g>
<defs>
<clipPath id="clip0_1_3786">
<rect width="40" height="40" fill="white"/>
</clipPath>
<clipPath id="clip1_1_3786">
<rect width="40" height="40" fill="white"/>
</clipPath>
</defs>
</svg>
