<svg width="24" height="25" viewBox="0 0 24 25" fill="none" xmlns="http://www.w3.org/2000/svg">
<path d="M21.75 6.90039V17.4004C21.75 17.9971 21.5129 18.5694 21.091 18.9914C20.669 19.4133 20.0967 19.6504 19.5 19.6504H4.5C3.90326 19.6504 3.33097 19.4133 2.90901 18.9914C2.48705 18.5694 2.25 17.9971 2.25 17.4004V6.90039M21.75 6.90039C21.75 6.30365 21.5129 5.73136 21.091 5.3094C20.669 4.88744 20.0967 4.65039 19.5 4.65039H4.5C3.90326 4.65039 3.33097 4.88744 2.90901 5.3094C2.48705 5.73136 2.25 6.30365 2.25 6.90039M21.75 6.90039V7.14339C21.75 7.52754 21.6517 7.9053 21.4644 8.24069C21.2771 8.57608 21.0071 8.85793 20.68 9.05939L13.18 13.6744C12.8252 13.8929 12.4167 14.0086 12 14.0086C11.5833 14.0086 11.1748 13.8929 10.82 13.6744L3.32 9.06039C2.99292 8.85893 2.72287 8.57708 2.53557 8.24169C2.34827 7.9063 2.24996 7.52854 2.25 7.14439V6.90039" stroke="white" stroke-width="1.5" stroke-linecap="round" stroke-linejoin="round"/>
</svg>
