<svg width="25" height="26" viewBox="0 0 25 26" fill="none" xmlns="http://www.w3.org/2000/svg">
<path fill-rule="evenodd" clip-rule="evenodd" d="M6.43907 11.0536C5.42057 11.0536 5.20801 11.2535 5.20801 12.211V13.9471C5.20801 14.9047 5.42057 15.1045 6.43907 15.1045H8.90118V22.049C8.90118 23.0065 9.11375 23.2064 10.1322 23.2064H12.5944C13.6129 23.2064 13.8254 23.0065 13.8254 22.049V15.1045H16.59C17.3625 15.1045 17.5615 14.9634 17.7737 14.2651L18.3013 12.529C18.6648 11.3328 18.4408 11.0536 17.1176 11.0536H13.8254V8.16009C13.8254 7.52087 14.3765 7.00267 15.0564 7.00267H18.5603C19.5787 7.00267 19.7913 6.80283 19.7913 5.84527V3.53045C19.7913 2.57289 19.5787 2.37305 18.5603 2.37305H15.0564C11.657 2.37305 8.90118 4.96399 8.90118 8.16009V11.0536H6.43907Z" stroke="white" stroke-width="1.5625" stroke-linejoin="round"/>
</svg>
