<svg width="25" height="26" viewBox="0 0 25 26" fill="none" xmlns="http://www.w3.org/2000/svg">
<path d="M7.29199 10.707V17.9987" stroke="white" stroke-width="1.5625" stroke-linecap="round" stroke-linejoin="round"/>
<path d="M11.458 13.832V17.9987M11.458 13.832C11.458 12.1061 12.8571 10.707 14.583 10.707C16.3089 10.707 17.708 12.1061 17.708 13.832V17.9987M11.458 13.832V10.707" stroke="white" stroke-width="1.5625" stroke-linecap="round" stroke-linejoin="round"/>
<path d="M7.30098 7.58203H7.29199" stroke="white" stroke-width="2.08333" stroke-linecap="round" stroke-linejoin="round"/>
<path d="M2.60449 12.7904C2.60449 8.12543 2.60449 5.79296 4.0537 4.34374C5.50292 2.89453 7.83539 2.89453 12.5003 2.89453C17.1652 2.89453 19.4977 2.89453 20.947 4.34374C22.3962 5.79296 22.3962 8.12543 22.3962 12.7904C22.3962 17.4553 22.3962 19.7878 20.947 21.237C19.4977 22.6862 17.1652 22.6862 12.5003 22.6862C7.83539 22.6862 5.50292 22.6862 4.0537 21.237C2.60449 19.7878 2.60449 17.4553 2.60449 12.7904Z" stroke="white" stroke-width="1.5625" stroke-linejoin="round"/>
</svg>
