<svg width="24" height="25" viewBox="0 0 24 25" fill="none" xmlns="http://www.w3.org/2000/svg">
<path d="M2.25 7.40039C2.25 15.6844 8.966 22.4004 17.25 22.4004H19.5C20.0967 22.4004 20.669 22.1633 21.091 21.7414C21.5129 21.3194 21.75 20.7471 21.75 20.1504V18.7784C21.75 18.2624 21.399 17.8124 20.898 17.6874L16.475 16.5814C16.035 16.4714 15.573 16.6364 15.302 16.9984L14.332 18.2914C14.05 18.6674 13.563 18.8334 13.122 18.6714C11.4849 18.0695 9.99815 17.119 8.76478 15.8856C7.53141 14.6522 6.58087 13.1655 5.979 11.5284C5.817 11.0874 5.983 10.6004 6.359 10.3184L7.652 9.34839C8.015 9.07739 8.179 8.61439 8.069 8.17539L6.963 3.75239C6.90214 3.50908 6.76172 3.29309 6.56405 3.13873C6.36638 2.98436 6.1228 2.90047 5.872 2.90039H4.5C3.90326 2.90039 3.33097 3.13744 2.90901 3.5594C2.48705 3.98136 2.25 4.55365 2.25 5.15039V7.40039Z" stroke="white" stroke-width="1.5" stroke-linecap="round" stroke-linejoin="round"/>
</svg>
