<svg width="40" height="40" viewBox="0 0 40 40" fill="none" xmlns="http://www.w3.org/2000/svg">
<g clip-path="url(#clip0_1_3755)">
<g clip-path="url(#clip1_1_3755)">
<path d="M20 40C31.0457 40 40 31.0457 40 20C40 8.9543 31.0457 0 20 0C8.9543 0 0 8.9543 0 20C0 31.0457 8.9543 40 20 40Z" fill="#FF6600"/>
<path d="M25.458 17.0801L25.1669 16.5662C24.9468 16.1775 24.8367 15.9831 24.6494 15.9056C24.4622 15.8281 24.2503 15.8893 23.8267 16.0116L23.1071 16.2178C22.8366 16.2813 22.5529 16.2453 22.3059 16.1162L22.1072 15.9996C21.8955 15.8616 21.7326 15.6581 21.6424 15.419L21.4455 14.8205C21.316 14.4245 21.2512 14.2265 21.0971 14.1132C20.943 14 20.7382 14 20.3287 14H19.6713C19.2618 14 19.057 14 18.9029 14.1132C18.7488 14.2265 18.684 14.4245 18.5545 14.8205L18.3576 15.419C18.2674 15.6581 18.1045 15.8616 17.8928 15.9996L17.6941 16.1162C17.4471 16.2453 17.1634 16.2813 16.8929 16.2178L16.1733 16.0116C15.7497 15.8893 15.5379 15.8281 15.3506 15.9056C15.1633 15.9831 15.0532 16.1775 14.8331 16.5662L14.542 17.0801C14.3356 17.4445 14.2324 17.6267 14.2525 17.8206C14.2725 18.0145 14.4106 18.1708 14.6869 18.4834L15.2949 19.175C15.4435 19.3664 15.549 19.7 15.549 19.9999C15.549 20.3 15.4436 20.6335 15.2949 20.8249L14.6869 21.5166C14.4106 21.8291 14.2725 21.9854 14.2525 22.1793C14.2324 22.3733 14.3356 22.5555 14.542 22.9198L14.833 23.4337C15.0532 23.8224 15.1633 24.0168 15.3506 24.0943C15.5379 24.1718 15.7497 24.1106 16.1733 23.9883L16.8929 23.7821C17.1634 23.7186 17.4472 23.7547 17.6942 23.8838L17.8928 24.0004C18.1046 24.1384 18.2674 24.3419 18.3576 24.581L18.5545 25.1795C18.684 25.5755 18.7488 25.7735 18.9029 25.8867C19.057 26 19.2618 26 19.6713 26H20.3287C20.7382 26 20.943 26 21.0971 25.8867C21.2512 25.7735 21.316 25.5755 21.4455 25.1795L21.6424 24.581C21.7326 24.3419 21.8954 24.1384 22.1072 24.0004L22.3058 23.8838C22.5528 23.7547 22.8366 23.7186 23.1071 23.7821L23.8267 23.9883C24.2503 24.1106 24.4621 24.1718 24.6494 24.0943C24.8367 24.0168 24.9468 23.8224 25.167 23.4338L25.458 22.9198C25.6644 22.5555 25.7676 22.3733 25.7475 22.1793C25.7275 21.9854 25.5894 21.8291 25.3131 21.5166L24.7051 20.8249C24.5564 20.6335 24.451 20.3 24.451 19.9999C24.451 19.7 24.5565 19.3664 24.7051 19.175L25.3131 18.4834C25.5894 18.1708 25.7275 18.0145 25.7475 17.8206C25.7676 17.6267 25.6644 17.4445 25.458 17.0801Z" stroke="white" stroke-width="1.5" stroke-linecap="round"/>
<path d="M20 21.75C20.9665 21.75 21.75 20.9665 21.75 20C21.75 19.0335 20.9665 18.25 20 18.25C19.0335 18.25 18.25 19.0335 18.25 20C18.25 20.9665 19.0335 21.75 20 21.75Z" stroke="white" stroke-width="1.5"/>
<path d="M27 10V12.8586C25.1962 11.0903 22.7255 10 20 10C14.4771 10 10 14.4771 10 20C10 21.4222 10.2969 22.7751 10.8321 24M13 30V27.1414C14.8038 28.9097 17.2745 30 20 30C25.5228 30 30 25.5228 30 20C30 18.5778 29.7031 17.2249 29.1679 16" stroke="white" stroke-width="1.5" stroke-linecap="round" stroke-linejoin="round"/>
</g>
</g>
<defs>
<clipPath id="clip0_1_3755">
<rect width="40" height="40" fill="white"/>
</clipPath>
<clipPath id="clip1_1_3755">
<rect width="40" height="40" fill="white"/>
</clipPath>
</defs>
</svg>
